<?xml version="1.0" encoding="UTF-8"?>
<svg xmlns="http://www.w3.org/2000/svg" xmlns:xlink="http://www.w3.org/1999/xlink" id="Layer_1" data-name="Layer 1" viewBox="0 0 100 95.62">
  <defs>
    <style>
      .cls-1 {
        clip-path: url(#clippath);
      }

      .cls-2 {
        fill: none;
      }

      .cls-2, .cls-3 {
        stroke-width: 0px;
      }

      .cls-3 {
        fill: #223a5e;
      }
    </style>
    <clipPath id="clippath">
      <rect class="cls-2" width="100" height="95.62"></rect>
    </clipPath>
  </defs>
  <g class="cls-1">
    <g id="Group_6" data-name="Group 6">
      <path id="Path_50" data-name="Path 50" class="cls-3" d="m81.8,39.11c.1-6.4,2.67-12.66,7.33-18.25.35-.42.72-.83,1.04-1.26.24-.27.26-.67.05-.96-.28-.35-.68-.19-1.01-.04-.85.38-1.7.77-2.52,1.19-3.15,1.64-6.27,3.32-9.43,4.93-4.95,2.53-10.36,3.03-15.9,2.99-.72,0-.79-.33-.77-.86.02-.57.15-.91.91-.88,2.1.07,4.2-.03,6.28-.3,3.41-.38,6.72-1.41,9.74-3.04,3.21-1.76,6.49-3.42,9.75-5.12.39-.21.8-.39,1.22-.54,1.5-.49,2.61-.3,3.26.52.72,1.04.62,2.44-.23,3.37-2.82,3.07-5,6.68-6.4,10.61-1.47,4.15-1.8,8.61-.95,12.93.15.76.11,1.18-.85,1.35-1.07.18-.91-.58-1.02-1.05-.39-1.84-.56-3.72-.5-5.61"></path>
      <path id="Path_51" data-name="Path 51" class="cls-3" d="m25.36,22.69c.64-5.98,1.25-12.09,3.69-17.89.69-1.54,1.81-2.86,3.22-3.78,1.78-1.37,4.26-1.35,6.02.03,1.05.75,1.93,1.73,2.57,2.85,2.69,4.53,4.81,9.37,6.3,14.43.15.51.42.98-.5,1.19-.85.2-1.13-.02-1.36-.77-1.42-4.87-3.45-9.54-6.05-13.9-.5-.88-1.16-1.66-1.96-2.3-1.14-1.03-2.86-1.06-4.03-.06-1.12.79-2.01,1.87-2.56,3.12-1.56,4.06-2.56,8.32-2.97,12.65-.19,1.53-.31,3.07-.48,4.6-.07.61.21,1.41-1.07,1.33-1.2-.08-.79-.8-.85-1.5"></path>
      <path id="Path_52" data-name="Path 52" class="cls-3" d="m0,75.96c13.67-9.09,29.05-12.83,45.82-12.14-15.7,2.72-31.25,5.89-45.82,12.14"></path>
      <path id="Path_53" data-name="Path 53" class="cls-3" d="m71.92,51.07c-.16.21-.19.5-.08.74.2.87-.5.74-1.03.84-.73.14-.75-.29-.88-.76-.58-2.09.18-3.96,1.24-5.71.7-1,1.79-1.67,3-1.84,3.5-.56,6.96.75,6.92,4.67.1,1.21-.08,2.42-.52,3.55-1.04,2.15-2.28,2.93-4.9,2.93-.66,0-1.32-.03-1.97,0-.73.04-1.02-.18-1.03-.88,0-.73.33-.9,1.05-.87.74.04,1.48-.03,2.22.02.7.06,1.4-.14,1.96-.55,1.46-1.13,1.19-2.79,1.32-4.29.04-1.16-.65-2.22-1.72-2.65-.26-.14-.57-.23-.79,0-.19.21.06.4.15.6.18.33.33.68.45,1.05.28,1.4-.34,2.82-1.57,3.55-1.16.73-2.07.63-3.81-.4"></path>
      <path id="Path_54" data-name="Path 54" class="cls-3" d="m9.1,59.28c11.85-4.77,28.18-5.77,37.8,1.49-12.54-3.08-24.95-3.23-37.8-1.49"></path>
      <path id="Path_55" data-name="Path 55" class="cls-3" d="m34.11,79.62c11.97,3.4,23.84,3.93,35.62-.73-2.91,2.83-10.37,6.1-17.61,6.1-6.39-.05-12.63-1.91-18-5.37"></path>
      <path id="Path_56" data-name="Path 56" class="cls-3" d="m63.41,64.21v-.56c0-1.97,0-2-2.08-2.1-.6-.03-.85-.3-.84-.75-.08-1.19.53-2.31,1.56-2.9.9-.44,1.98-.32,2.76.31.98.73,2.23,1,3.43.73.85-.17,1.72-.16,2.57.04,1.25.36,1.97,1.66,1.62,2.91-.07,1.06-1,1.86-2.06,1.79-.09,0-.17-.02-.26-.04-.92-.2-1.84.31-2.16,1.2-.42,1.02-1.14,1.88-2.06,2.48-.71.5-1.69.33-2.2-.38-.15-.21-.24-.44-.27-.69-.04-.68-.04-1.35-.01-2.03h0Z"></path>
      <path id="Path_57" data-name="Path 57" class="cls-3" d="m72.61,70c9.58,7.15,18.99,14.43,23.23,25.61-7.26-8.96-15.02-17.51-23.23-25.61"></path>
      <path id="Path_58" data-name="Path 58" class="cls-3" d="m99.81,85.73c-7.87-7.09-16.45-13.37-25.59-18.73,10.56,3.95,20.35,8.77,25.59,18.73"></path>
      <path id="Path_59" data-name="Path 59" class="cls-3" d="m18.46,81.21c7.3-7.07,15.52-12.65,26.57-13.6-9.09,4.05-17.96,8.59-26.57,13.6"></path>
      <path id="Path_60" data-name="Path 60" class="cls-3" d="m100,71.26c-5.62-.53-21.27-4.88-23.86-6.6,6.86-.16,20.66,3.61,23.86,6.6"></path>
      <path id="Path_61" data-name="Path 61" class="cls-3" d="m65.51,74.26c-1.14-.02-2.23-.44-3.09-1.19-.39-.35-.96-.44-1.44-.23-1.71.58-3.5.92-5.3,1.01-1.47.19-2.96-.25-4.1-1.21-.19-.18-.45-.39-.31-.68.12-.26.42-.17.66-.18,3.17.03,6.33-.28,9.43-.93,1.11-.36,2.33-.03,3.1.85.58.55,1.2,1.04,1.86,1.47.24.19.71.28.64.6-.08.39-.58.33-.92.42-.17.03-.35.05-.52.04"></path>
      <path id="Path_62" data-name="Path 62" class="cls-3" d="m56.27,49.41c-.77-1.66-1.48-3.35-2.23-5.01-1.22-2.64-3.67-4.5-6.53-4.98-2.88-.5-5.84-.34-8.65.46-.42.1-.7.22-.55.68.27,1.26.67,2.48,1.19,3.66.65,1.18,1.25,2.58,2.58,3.23,3.41,1.67,6.91,3.19,10.76,2.88,1.07,0,1.94-.03,2.8,0,.88.04.95-.27.64-.93m-13.49-3.75c-1-.97-1.71-2.2-2.07-3.54-.07-.39-.2-.77.4-.87,1.35-.22,2.68-.7,4.22-.22-1.99,1.95-2.09,2.14-2.55,4.63m10.26,2.98c-2.03.12-4.05-.22-5.93-.99.92-.59,1.69-1.38,2.25-2.32.46-1.03.58-2.18.35-3.28,1.01.71,1.85,1.63,2.45,2.71.57,1,.93,2.09,1.42,3.12.26.55.1.72-.54.76"></path>
      <path id="Path_63" data-name="Path 63" class="cls-3" d="m76.47,46.18s-.07.06-.09.06-.05-.05-.08-.08c.03-.02.07-.06.09-.06s.05.05.08.08"></path>
    </g>
  </g>
</svg>
