<?xml version="1.0" encoding="UTF-8"?>
<svg xmlns="http://www.w3.org/2000/svg" xmlns:xlink="http://www.w3.org/1999/xlink" id="Layer_1" data-name="Layer 1" viewBox="0 0 100 94">
  <defs>
    <style>
      .cls-1 {
        clip-path: url(#clippath);
      }

      .cls-2 {
        fill: none;
      }

      .cls-2, .cls-3 {
        stroke-width: 0px;
      }

      .cls-3 {
        fill: #6cd1cc;
      }
    </style>
    <clipPath id="clippath">
      <rect class="cls-2" width="100" height="94"></rect>
    </clipPath>
  </defs>
  <g class="cls-1">
    <g id="Group_8" data-name="Group 8">
      <path id="Path_64" data-name="Path 64" class="cls-3" d="m56.16,54.11c1.06.05,2.11.07,3.17.16,2.06.37,3.76,1.84,4.41,3.84.99,2.8-1.49,7.22-4.32,8.54-3.74,1.81-8,2.23-12.02,1.19-2.74-.54-4.69-2.98-4.62-5.78-.08-2.26,1.33-3.66,3-4.91,2.99-2.21,6.67-3.29,10.39-3.03"></path>
      <path id="Path_65" data-name="Path 65" class="cls-3" d="m21.07,60.75c-.69-1.68-1.44-3.35-2.05-5.06-.79-2.41-2.42-4.45-4.58-5.78-3.96-2.34-7.44-5.4-10.25-9.04-1.94-2.39-3.32-5.19-4.02-8.19-.57-3.08.57-6.23,2.99-8.22,2.2-1.98,4.63-3.68,7.24-5.06,4.53-2.36,8.58-5.57,11.9-9.45,1.4-1.71,3.16-1.67,5.06-1.56.79.11,1.58.28,2.35.48.72.13,1.12.31.91,1.15-.22.86-.7.79-1.38.6-.65-.19-1.31-.33-1.97-.44-1.35-.35-2.77.1-3.68,1.15-3.41,3.86-7.49,7.08-12.05,9.49-2.17,1.18-4.22,2.55-6.13,4.1-3.86,3.16-4.14,6.56-2.23,10.68,1.78,3.45,4.19,6.54,7.1,9.12.97.76,1.97,1.46,3.01,2.11,2.46,1.9,5.49,3.27,6.73,6.3l.37-.13c.16-2.17.34-4.34.46-6.51.2-2.97.23-5.96.08-8.93-.05-.7.29-.86.96-.87.54,0,.98-.07,1,.65.25,7.84-.36,15.68-1.83,23.38"></path>
      <path id="Path_66" data-name="Path 66" class="cls-3" d="m72.28,79.13c.07,2.05-.05,4.11-.37,6.14-.59,4.23-4.4,7.74-8.99,8.38-1.31.32-2.67.4-4.01.23-2.71-.52-5.05-2.21-6.39-4.61-1.97-3.24-3.12-6.92-3.35-10.7-.05-.65,0-.99.83-1.09.89-.11,1.12.22,1.14.93.02.58.16,1.15.17,1.73.1,3.67,1.91,6.8,3.93,9.79,1.11,1.52,2.91,2.37,4.78,2.27,2.58-.09,5.21-.39,7.1-2.3,1.41-1.35,2.4-3.09,2.82-5,.68-3.12.67-6.34-.03-9.46-.22-.75-.49-1.48-.83-2.19-.29-.64-.27-1.02.58-1.31s.98.08,1.25.64c.98,2.04,1.45,4.29,1.38,6.55"></path>
      <path id="Path_67" data-name="Path 67" class="cls-3" d="m60.36,71.54c-2.21-.6-4.56.17-5.97,1.97-.72.73-1.62,1.26-2.62,1.52-1.84.58-3.39-.04-5.01-.56-.82-.27-.36-.72-.24-1.12.13-.45.31-.76.97-.55.95.45,1.99.68,3.04.66,1.51-.27,2.87-1.11,3.78-2.35.85-1.07,2.19-1.62,3.55-1.44,2.28.13,4.56.11,6.84-.06,2.07-.2,3.97-1.23,5.26-2.86,1.11-1.21,2.12-2.5,3.14-3.78.36-.45.69-.52,1.13-.13.32.29,1.06.46.52,1.06-1.52,1.91-3.14,3.74-4.85,5.48-1.98,1.78-4.39,1.95-6.86,2.15-.88.07-1.77.01-2.66.01"></path>
      <path id="Path_68" data-name="Path 68" class="cls-3" d="m41.44,32.27c-1.37-1.14-2.08-2.9-1.89-4.67,0-.46-.14-.92-.14-1.38.02-2.51-1.48-4.02-3.88-4.88-1.68-.61-4.65-.61-6.14.98-.65.72-1.39,1.37-2.19,1.93-1.29.95-2.04,2.45-2.05,4.05-.08.65-.1,1.31-.18,1.96-.59,4.73.73,8.8,4.9,11.89,1.41.87,2.89,1.63,4.42,2.26,1.32.56,2.83.41,4.02-.39,2.64-2.17,4.58-4.67,4.28-7.94.38-1.39-.07-2.87-1.15-3.82m-3.84,4.34c-1.27.24-2.49,1.14-3.86.29-.49-.3-1.02-.55-1.5-.86-1.03-.69-1.13-1.3-.41-2.24.24-.45.71-.72,1.21-.72.57.06.44.59.51.94.06.46.46.8.93.8.58.04.49-.43.58-.73.16-.58.45-.65.99-.31.87.54,1.93.92,1.79,1.92.03.5.08.87-.26.93"></path>
      <path id="Path_69" data-name="Path 69" class="cls-3" d="m97.71,7.93c-1.73-5.15-6.79-7.43-11.3-7.48-6.86-.07-13.72-.17-20.57-.45-1.94-.21-3.86.45-5.27,1.79-1.74,1.64-3.69,3.1-5.55,4.64,1.94-.57,3.74-1.33,5.56-2.03,2.86-1.18,6.12-.79,8.62,1.03,1.08.73,2.06,1.6,2.91,2.58,3.4,3.87,5.36,8.39,7.08,13.02,1.03,2.75,1.42,5.67,2.49,8.39,2.59,6.62,7.93,11.18,14.14,15.27.04-.29.08-.37.06-.44-.25-.73-.52-1.47-.78-2.21-1.69-4.48-.91-9.52,2.04-13.29,1.22-1.65,2.06-3.54,2.46-5.55,1.09-5.27-.2-10.27-1.89-15.27m-.18,15.62c-.31,1.39-.9,2.69-1.74,3.84-2.66,3.3-3.87,7.54-3.35,11.74.09.26.03.55-.16.76-1.81-1.4-3.47-2.99-4.94-4.74-2.27-2.59-3.86-5.69-4.65-9.04-1.15-5.17-3.12-10.12-5.83-14.68-2.54-4.24-5.55-8.07-11.05-9.48,2.6,0,5.2-.03,7.79,0,4.19.06,8.38.16,12.57.25,3.64.08,6.71,1.2,8.7,4.17.66,1.11,1.17,2.31,1.5,3.56,1.44,4.45,2.35,8.95,1.15,13.6"></path>
      <path id="Path_70" data-name="Path 70" class="cls-3" d="m70.69,25.4c-1.37-.72-2.85-1.23-4.37-1.52-2.51-.6-5.09.69-6.13,3.05-.62,1.48-.92,3.07-.9,4.67.01.18.05.61.07,1.03s.21.58.71.61c4.1.23,9.61-3.12,11.03-6.71.21-.53.17-.84-.4-1.12m-2.13,1.75c-1.6,2.12-3.93,3.57-6.55,4.06-.42.09-.8.11-.76-.43.03-1.65.58-3.24,1.58-4.56.06-.07.22-.08.49-.16-.31.98-.45,1.9.83,2.23.63.19,1.3-.14,1.51-.76.43-1.08-.42-1.49-1.49-1.84,1.39-.21,2.82,0,4.1.58.54.2.59.46.28.88"></path>
    </g>
  </g>
</svg>
