<?xml version="1.0" encoding="utf-8"?>
<!-- Generator: Adobe Illustrator 20.1.0, SVG Export Plug-In . SVG Version: 6.00 Build 0)  -->
<svg version="1.1" id="Layer_1" xmlns="http://www.w3.org/2000/svg" xmlns:xlink="http://www.w3.org/1999/xlink" x="0px" y="0px"
	 viewBox="0 0 150 150" style="enable-background:new 0 0 150 150;" xml:space="preserve">
<style type="text/css">
	.st0{fill:#E7131A;}
</style>
<g>
	<path class="st0" d="M97.7,75l39.7-39.7c2.1-2.1,2.1-5.5,0-7.6l-15.1-15.1c-2.1-2.1-5.5-2.1-7.6,0L75,52.3L35.3,12.6
		c-2.1-2.1-5.5-2.1-7.6,0L12.6,27.7c-2.1,2.1-2.1,5.5,0,7.6L52.3,75l-39.7,39.7c-2.1,2.1-2.1,5.5,0,7.6l15.1,15.1
		c2.1,2.1,5.5,2.1,7.6,0L75,97.7l39.7,39.7c2.1,2.1,5.5,2.1,7.6,0l15.1-15.1c2.1-2.1,2.1-5.5,0-7.6L97.7,75z"/>
</g>
</svg>
